<svg xmlns="http://www.w3.org/2000/svg" version="1.1" xmlns:xlink="http://www.w3.org/1999/xlink" xmlns:svgjs="http://svgjs.dev/svgjs" width="5120" height="2880" preserveAspectRatio="none" viewBox="0 0 5120 2880"><g mask="url(&quot;#SvgjsMask1001&quot;)" fill="none"><rect width="5120" height="2880" x="0" y="0" fill="rgba(24, 24, 24, 1)"></rect><path d="M0,2142.348C396.714,2176.761,728.28,1869.73,1065.41,1657.81C1405.927,1443.761,1845.581,1282.648,1973.997,901.494C2101.918,521.808,1853.42,127.417,1706.617,-245.375C1588.983,-544.096,1440.497,-825.509,1207.102,-1045.96C989.336,-1251.649,702.728,-1337.118,426.953,-1454.07C112.585,-1587.389,-181.038,-1776.866,-522.497,-1779.46C-935.603,-1782.599,-1416.04,-1773.342,-1696.706,-1470.204C-1977.464,-1166.967,-1963.693,-685.737,-1915.105,-275.35C-1873.232,78.32,-1615.52,347.287,-1444.536,659.697C-1287.94,945.819,-1180.511,1249.112,-952.895,1482.734C-677.741,1765.148,-392.818,2108.273,0,2142.348" fill="#101010"></path><path d="M5120 5216.802C5552.161 5291.715 5966.379 5006.998 6321.55 4749.648 6663.0869999999995 4502.177 6890.215 4150.332 7098.221 3783.423 7324.2919999999995 3384.648 7677.573 2974.354 7582.17 2525.993 7486.695 2077.2960000000003 6937.562 1911.858 6627.956 1573.349 6329.568 1247.107 6198.349 759.7429999999999 5797.039 574.2179999999998 5377.701 380.3589999999999 4855.371 360.87800000000016 4439.228 561.5030000000002 4037.897 754.9870000000001 3930.703 1260.388 3652.283 1608.216 3388.107 1938.248 2906.958 2134.728 2845.182 2552.931 2783.401 2971.17 3097.328 3347.888 3344.6530000000002 3690.774 3556.379 3984.307 3884.862 4138.915 4159.327 4374.836 4488.912 4658.136 4691.777 5142.571 5120 5216.802" fill="#202020"></path></g><defs><mask id="SvgjsMask1001"><rect width="5120" height="2880" fill="#ffffff"></rect></mask></defs></svg>